<svg width="60" height="60" viewBox="0 0 60 60" fill="none" xmlns="http://www.w3.org/2000/svg">
<path d="M36.5 49.0008L47.8175 40.3668M10 52C10 42.335 17.835 34.5 27.5 34.5M50 44.5C50 48.6423 46.6423 52 42.5 52C38.3577 52 35 48.6423 35 44.5C35 40.3577 38.3577 37 42.5 37C46.6423 37 50 40.3577 50 44.5ZM37.5 17C37.5 22.5229 33.0227 27 27.5 27C21.9771 27 17.5 22.5229 17.5 17C17.5 11.4771 21.9771 7 27.5 7C33.0227 7 37.5 11.4771 37.5 17Z" stroke="currentColor" stroke-width="5" stroke-linecap="round" stroke-linejoin="round"/>
</svg>
